<svg width="15" height="18" viewBox="0 0 15 18" fill="none" xmlns="http://www.w3.org/2000/svg">
<path d="M13.3333 2.33341H12.5V0.666748H10.8333V2.33341H4.16667V0.666748H2.5V2.33341H1.66667C0.741667 2.33341 0.00833333 3.08341 0.00833333 4.00008L0 15.6667C0 16.1088 0.175595 16.5327 0.488155 16.8453C0.800716 17.1578 1.22464 17.3334 1.66667 17.3334H13.3333C14.25 17.3334 15 16.5834 15 15.6667V4.00008C15 3.08341 14.25 2.33341 13.3333 2.33341ZM13.3333 15.6667H1.66667V7.33342H13.3333V15.6667ZM13.3333 5.66675H1.66667V4.00008H13.3333V5.66675ZM5 10.6667H3.33333V9.00008H5V10.6667ZM8.33333 10.6667H6.66667V9.00008H8.33333V10.6667ZM11.6667 10.6667H10V9.00008H11.6667V10.6667ZM5 14.0001H3.33333V12.3334H5V14.0001ZM8.33333 14.0001H6.66667V12.3334H8.33333V14.0001ZM11.6667 14.0001H10V12.3334H11.6667V14.0001Z" fill="#00B666"/>
</svg>
