<svg width="50" height="50" viewBox="0 0 50 50" fill="none" xmlns="http://www.w3.org/2000/svg">
<path fill-rule="evenodd" clip-rule="evenodd" d="M15.7197 27.9681C16.7042 27.9681 17.6484 27.577 18.3446 26.8809C19.0407 26.1847 19.4318 25.2405 19.4318 24.256C19.4318 23.2715 19.0407 22.3273 18.3446 21.6311C17.6484 20.935 16.7042 20.5439 15.7197 20.5439C14.7352 20.5439 13.791 20.935 13.0948 21.6311C12.3987 22.3273 12.0076 23.2715 12.0076 24.256C12.0076 25.2405 12.3987 26.1847 13.0948 26.8809C13.791 27.577 14.7352 27.9681 15.7197 27.9681ZM22.1509 20.5439C21.4132 19.2677 20.3123 18.2398 18.9886 17.5912C17.6648 16.9426 16.178 16.7025 14.7174 16.9015C13.2567 17.1005 11.8884 17.7297 10.7864 18.7088C9.68444 19.688 8.89874 20.9728 8.52931 22.3999H6.43939C5.94713 22.3999 5.47503 22.5955 5.12696 22.9436C4.77888 23.2916 4.58333 23.7637 4.58333 24.256C4.58333 24.7483 4.77888 25.2203 5.12696 25.5684C5.47503 25.9165 5.94713 26.1121 6.43939 26.1121H8.52931C8.9854 27.8577 10.0612 29.3776 11.5559 30.388C13.0506 31.3985 14.862 31.8304 16.6518 31.6031C18.4417 31.3758 20.0876 30.5048 21.2823 29.1528C22.4769 27.8008 23.1387 26.0602 23.1439 24.256H26.8561C26.8543 26.0643 27.5125 27.8111 28.7072 29.1685C29.902 30.5259 31.551 31.4006 33.3449 31.6284C35.1388 31.8562 36.9542 31.4215 38.4503 30.4058C39.9464 29.3902 41.0204 27.8634 41.4707 26.1121H43.5606C44.0529 26.1121 44.525 25.9165 44.873 25.5684C45.2211 25.2203 45.4167 24.7483 45.4167 24.256C45.4167 23.7637 45.2211 23.2916 44.873 22.9436C44.525 22.5955 44.0529 22.3999 43.5606 22.3999H41.4707C41.1012 20.9728 40.3156 19.688 39.2136 18.7088C38.1116 17.7297 36.7432 17.1005 35.2826 16.9015C33.822 16.7025 32.3352 16.9426 31.0114 17.5912C29.6877 18.2398 28.5868 19.2677 27.849 20.5439H22.1509ZM30.5682 24.256C30.5682 25.2405 30.9593 26.1847 31.6554 26.8809C32.3516 27.577 33.2958 27.9681 34.2803 27.9681C35.2648 27.9681 36.209 27.577 36.9052 26.8809C37.6013 26.1847 37.9924 25.2405 37.9924 24.256C37.9924 23.2715 37.6013 22.3273 36.9052 21.6311C36.209 20.935 35.2648 20.5439 34.2803 20.5439C33.2958 20.5439 32.3516 20.935 31.6554 21.6311C30.9593 22.3273 30.5682 23.2715 30.5682 24.256Z" fill="#00B666"/>
</svg>
